<svg width="25" height="24" viewBox="0 0 25 24" fill="none" xmlns="http://www.w3.org/2000/svg">
<g clip-path="url(#clip0_2_1105)">
<path d="M1.98645 5.99997H23.9865C24.2517 5.99997 24.506 5.89461 24.6936 5.70707C24.8811 5.51954 24.9865 5.26518 24.9865 4.99997C24.9865 4.73475 24.8811 4.4804 24.6936 4.29286C24.506 4.10533 24.2517 3.99997 23.9865 3.99997H1.98645C1.72123 3.99997 1.46688 4.10533 1.27934 4.29286C1.09181 4.4804 0.98645 4.73475 0.98645 4.99997C0.98645 5.26518 1.09181 5.51954 1.27934 5.70707C1.46688 5.89461 1.72123 5.99997 1.98645 5.99997Z" fill="#0D161D"/>
<path d="M23.9865 9H9.98648C9.72126 9 9.46691 9.10536 9.27937 9.29289C9.09184 9.48043 8.98648 9.73478 8.98648 10C8.98648 10.2652 9.09184 10.5196 9.27937 10.7071C9.46691 10.8946 9.72126 11 9.98648 11H23.9865C24.2517 11 24.5061 10.8946 24.6936 10.7071C24.8811 10.5196 24.9865 10.2652 24.9865 10C24.9865 9.73478 24.8811 9.48043 24.6936 9.29289C24.5061 9.10536 24.2517 9 23.9865 9Z" fill="#0D161D"/>
<path d="M23.9865 19H9.98648C9.72126 19 9.46691 19.1053 9.27937 19.2929C9.09184 19.4804 8.98648 19.7348 8.98648 20C8.98648 20.2652 9.09184 20.5195 9.27937 20.7071C9.46691 20.8946 9.72126 21 9.98648 21H23.9865C24.2517 21 24.5061 20.8946 24.6936 20.7071C24.8811 20.5195 24.9865 20.2652 24.9865 20C24.9865 19.7348 24.8811 19.4804 24.6936 19.2929C24.5061 19.1053 24.2517 19 23.9865 19Z" fill="#0D161D"/>
<path d="M23.9865 14H1.98645C1.72123 14 1.46688 14.1054 1.27934 14.2929C1.09181 14.4805 0.98645 14.7348 0.98645 15C0.98645 15.2653 1.09181 15.5196 1.27934 15.7071C1.46688 15.8947 1.72123 16 1.98645 16H23.9865C24.2517 16 24.506 15.8947 24.6936 15.7071C24.8811 15.5196 24.9865 15.2653 24.9865 15C24.9865 14.7348 24.8811 14.4805 24.6936 14.2929C24.506 14.1054 24.2517 14 23.9865 14Z" fill="#0D161D"/>
</g>
<defs>
<clipPath id="clip0_2_1105">
<rect width="24" height="24" fill="white" transform="translate(0.98645)"/>
</clipPath>
</defs>
</svg>
