<svg width="375" height="376" viewBox="0 0 375 376" fill="none" xmlns="http://www.w3.org/2000/svg">
<g clip-path="url(#clip0_2_2033)">
<path d="M338.768 207.918C335.52 235.443 322.95 267.445 297.855 282.145C259.935 304.36 263.108 338.53 189.09 353.388C177.548 355.705 166.598 356.68 156.27 356.485C150.72 356.38 145.343 355.938 140.16 355.173C93.1126 348.303 61.455 315.603 49.845 276.13C34.5601 224.215 65.0775 190.233 85.3125 169.75C105.54 149.275 120.36 85.4651 193.013 70.2926C204.09 67.9826 215.415 66.8051 226.74 67.0901C252.593 67.7276 280.785 76.2101 300.293 93.9251C301.755 95.2526 303.18 96.6401 304.568 98.0576C331.68 125.89 343.2 170.395 338.768 207.918Z" fill="#EBEBEB"/>
<path opacity="0.7" d="M338.768 207.918C335.52 235.443 322.95 267.445 297.855 282.145C259.935 304.36 263.108 338.53 189.09 353.388C177.548 355.705 166.598 356.68 156.27 356.485C150.72 356.38 145.343 355.938 140.16 355.173C93.1126 348.303 61.455 315.603 49.845 276.13C34.5601 224.215 65.0775 190.233 85.3125 169.75C105.54 149.275 120.36 85.4651 193.013 70.2926C204.09 67.9826 215.415 66.8051 226.74 67.0901C252.593 67.7276 280.785 76.2101 300.293 93.9251C301.755 95.2526 303.18 96.6401 304.568 98.0576C331.68 125.89 343.2 170.395 338.768 207.918Z" fill="white"/>
<g opacity="0.15">
<path opacity="0.15" d="M241.568 74.0052C238.013 76.4727 228.458 78.1302 228.45 78.1377C228.353 78.1527 229.268 71.5077 229.373 71.0952C230.595 66.3177 235.778 57.8052 241.298 57.4676C245.273 57.2276 248.19 60.6777 248.033 64.4952C247.868 68.3877 244.598 71.9052 241.568 74.0052Z" fill="black"/>
<path opacity="0.15" d="M215.22 194.26C215.228 194.485 215.235 194.695 215.235 194.92L211.958 197.043C211.95 196.143 211.95 195.235 211.95 194.298C211.95 191.643 211.995 188.8 212.078 185.883C211.395 185.755 207.51 185.013 203.978 183.858C201.795 187.413 195.383 192.325 194.55 192.955C195.983 195.145 197.408 197.26 198.773 199.233C199.71 200.598 200.625 201.895 201.518 203.14L197.918 203.853C197.31 202.945 196.688 202.03 196.058 201.07C194.588 198.858 193.065 196.458 191.52 193.983C190.545 194.395 182.535 197.733 178.47 197.628C174.788 197.523 170.123 196.375 167.858 193.195C165.638 190.09 166.193 185.605 169.65 183.633C174.45 180.895 183.443 185.185 187.08 188.515C187.298 188.71 189.39 191.103 190.688 192.633C190.065 191.62 189.443 190.638 188.813 189.588C187.553 187.518 186.353 185.41 185.055 183.145C184.47 182.028 183.87 180.903 183.27 179.77C182.655 178.653 182.138 177.4 181.568 176.208C180.293 173.41 179.13 170.515 178.028 167.575C176.213 168.678 169.695 172.488 166.02 172.945C162.36 173.403 157.575 172.968 154.86 170.178C152.198 167.44 152.063 162.925 155.183 160.45C159.51 157.015 169.05 159.895 173.153 162.633C173.408 162.805 176.13 165.1 177.608 166.39C176.963 164.613 176.303 162.85 175.703 161.035C173.978 155.793 172.395 150.43 170.79 145.09C170.303 143.455 169.793 141.828 169.29 140.2C168.645 140.598 161.003 145.3 156.885 145.81C153.233 146.268 148.44 145.833 145.725 143.043C143.063 140.305 142.928 135.79 146.048 133.315C150.375 129.88 159.915 132.76 164.018 135.498C164.325 135.7 168.24 139.015 169.2 139.9C168.09 136.315 166.95 132.753 165.69 129.288C163.95 124.503 161.978 119.905 159.743 115.585C159.443 115.773 151.485 120.708 147.27 121.24C143.61 121.698 138.825 121.263 136.11 118.473C133.448 115.735 133.313 111.22 136.433 108.745C140.76 105.31 150.3 108.19 154.403 110.928C154.725 111.145 158.933 114.708 159.653 115.405C159.518 115.15 159.405 114.865 159.27 114.618C156.825 110.043 153.878 105.918 150.93 102.19C149.22 100.023 147.465 98.0427 145.718 96.1602C144.33 97.2327 137.933 102.063 134.198 102.955C130.613 103.81 125.813 103.908 122.798 101.425C119.85 98.9952 119.22 94.5252 122.048 91.7202C125.97 87.8277 135.773 89.6427 140.153 91.9152C140.393 92.0352 142.673 93.5652 144.323 94.6977C143.52 93.8577 142.71 92.9802 141.923 92.1927C138.983 89.2227 136.103 86.6877 133.538 84.4602C132.068 83.2077 130.718 82.1052 129.435 81.0777C127.523 81.4227 119.813 82.6977 116.145 81.7827C112.568 80.8902 108.263 78.7602 106.733 75.1752C105.233 71.6577 106.74 67.4052 110.543 66.2201C115.815 64.5777 123.683 70.6977 126.518 74.7327C126.765 75.0852 129.975 80.9727 129.878 80.9952C129.878 80.9952 129.788 81.0102 129.765 81.0177C131.018 81.9777 132.338 83.0127 133.77 84.1827C136.388 86.3577 139.328 88.8402 142.343 91.7502C145.365 94.6527 148.568 97.9002 151.635 101.62C154.71 105.348 157.755 109.42 160.35 114.025C160.38 114.078 160.403 114.138 160.433 114.19C160.088 112.608 159.285 108.153 159.263 107.8C158.94 102.88 161.205 93.1752 166.343 91.1352C170.04 89.6727 173.888 92.0352 174.93 95.7102C175.995 99.4602 173.985 103.825 171.758 106.765C169.253 110.08 161.333 114.378 160.695 114.715C163.125 119.125 165.263 123.843 167.168 128.74C168.255 131.538 169.268 134.388 170.243 137.26C169.995 135.88 169.778 134.65 169.77 134.47C169.448 129.543 171.713 119.845 176.85 117.805C180.548 116.335 184.395 118.705 185.438 122.38C186.503 126.13 184.493 130.495 182.265 133.435C180.008 136.42 173.333 140.215 171.548 141.198C171.908 142.3 172.283 143.403 172.643 144.513C174.368 149.823 176.063 155.133 177.885 160.285C178.523 162.1 179.228 163.87 179.918 165.64C179.693 164.418 179.52 163.383 179.513 163.225C179.19 158.298 181.455 148.6 186.593 146.56C190.298 145.09 194.138 147.46 195.18 151.135C196.245 154.885 194.228 159.25 192.008 162.19C189.855 165.04 183.72 168.595 181.613 169.773C182.378 171.565 183.135 173.358 183.96 175.06C184.545 176.208 185.033 177.355 185.685 178.48C186.308 179.605 186.923 180.715 187.538 181.818C188.798 183.895 190.073 186.048 191.355 188.043C192.233 189.438 193.095 190.75 193.958 192.078C193.298 190.278 192.083 186.723 192.015 186.415C191.31 183.213 191.415 177.76 192.968 173.635C192.863 173.163 192.795 172.683 192.78 172.203C192.645 168.385 195.578 164.95 199.553 165.213C205.065 165.573 210.203 174.115 211.403 178.9C211.47 179.185 211.898 182.328 212.138 184.323C212.175 183.13 212.198 181.975 212.258 180.745C212.348 178.323 212.513 175.9 212.678 173.298C212.805 172.045 212.925 170.778 213.053 169.503C213.15 168.235 213.42 166.9 213.593 165.588C214.073 162.55 214.703 159.498 215.408 156.43C213.285 156.348 205.748 155.928 202.433 154.285C199.133 152.65 195.375 149.65 194.648 145.818C193.935 142.068 196.313 138.228 200.28 137.883C205.785 137.403 212.153 145.068 214.065 149.62C214.185 149.905 215.19 153.318 215.708 155.208C216.143 153.37 216.57 151.533 217.08 149.688C218.535 144.363 220.17 139.015 221.775 133.675C222.27 132.04 222.743 130.405 223.223 128.77C222.465 128.748 213.495 128.448 209.783 126.61C206.483 124.975 202.725 121.975 201.998 118.143C201.285 114.393 203.663 110.553 207.63 110.208C213.135 109.728 219.503 117.393 221.415 121.938C221.558 122.283 222.998 127.203 223.305 128.47C224.355 124.87 225.375 121.27 226.23 117.678C227.423 112.728 228.315 107.808 228.825 102.97C228.473 102.963 219.113 102.693 215.303 100.803C212.003 99.1677 208.245 96.1677 207.518 92.3352C206.805 88.5852 209.183 84.7452 213.15 84.4002C218.655 83.9202 225.023 91.5852 226.935 96.1377C227.085 96.4977 228.63 101.793 228.84 102.768C228.87 102.483 228.93 102.183 228.96 101.898C229.44 96.7302 229.26 91.6602 228.855 86.9277C228.63 84.1752 228.255 81.5577 227.835 79.0227C226.088 79.1502 218.085 79.6527 214.478 78.3327C211.013 77.0727 206.955 74.5002 205.815 70.7727C204.698 67.1202 206.64 63.0477 210.54 62.2677C215.963 61.1877 223.133 68.1027 225.533 72.4152C225.66 72.6477 226.725 75.1827 227.475 77.0352C227.265 75.8952 227.078 74.7102 226.86 73.6152C226.043 69.5202 225.045 65.8152 224.13 62.5452C223.598 60.6852 223.08 59.0202 222.578 57.4677C220.8 56.6952 213.653 53.5077 211.103 50.7252C208.613 48.0102 206.198 43.8552 206.895 40.0226C207.585 36.2651 211.185 33.5426 215.01 34.6526C220.32 36.1901 223.493 45.6402 223.643 50.5677C223.65 50.9952 223.08 57.6777 222.99 57.6402C222.99 57.6402 222.9 57.6026 222.885 57.5951C223.395 59.0802 223.928 60.6852 224.475 62.4402C225.458 65.6952 226.545 69.3852 227.453 73.4877C228.368 77.5752 229.253 82.0527 229.755 86.8452C230.265 91.6452 230.558 96.7302 230.183 102.003C230.175 102.063 230.168 102.123 230.16 102.183C230.753 100.675 232.538 96.5127 232.71 96.2052C235.155 91.9227 242.4 85.0752 247.808 86.2152C251.7 87.0327 253.605 91.1277 252.45 94.7727C251.265 98.4927 247.185 101.02 243.705 102.243C239.783 103.63 230.805 102.835 230.093 102.775C229.688 107.793 228.87 112.908 227.753 118.038C227.115 120.97 226.388 123.91 225.615 126.843C226.163 125.553 226.665 124.405 226.755 124.255C229.2 119.973 236.445 113.125 241.853 114.265C245.753 115.083 247.65 119.178 246.495 122.815C245.318 126.535 241.23 129.063 237.75 130.285C234.225 131.53 226.56 131.013 224.528 130.848C224.22 131.973 223.928 133.098 223.613 134.215C222.12 139.6 220.605 144.963 219.285 150.265C218.82 152.133 218.43 153.993 218.025 155.853C218.513 154.713 218.94 153.753 219.015 153.61C221.46 149.328 228.705 142.48 234.113 143.62C238.005 144.438 239.91 148.533 238.755 152.17C237.57 155.89 233.49 158.418 230.01 159.64C226.643 160.825 219.563 160.413 217.155 160.233C216.803 162.145 216.45 164.065 216.195 165.94C216.053 167.223 215.82 168.445 215.753 169.743C215.655 171.025 215.558 172.293 215.46 173.545C215.363 175.968 215.243 178.473 215.205 180.843C215.168 182.493 215.16 184.06 215.153 185.643C215.595 183.775 216.54 180.138 216.653 179.845C218.423 175.24 224.543 167.38 230.063 167.68C234.038 167.898 236.535 171.663 235.943 175.435C235.335 179.29 231.683 182.41 228.435 184.143C224.858 186.055 216.218 186.655 215.138 186.723C215.145 189.31 215.16 191.86 215.22 194.26Z" fill="black"/>
<path opacity="0.15" d="M145.74 95.0727C145.665 95.1402 142.763 89.0877 142.62 88.6902C141.008 84.0252 140.633 74.0727 145.05 70.7502C148.23 68.3577 152.565 69.6252 154.538 72.8952C156.555 76.2327 155.768 80.9727 154.403 84.3927C152.798 88.4052 145.748 95.0652 145.74 95.0727Z" fill="black"/>
</g>
<g opacity="0.15">
<path opacity="0.15" d="M95.9476 212.98C95.3326 215.125 92.0701 218.913 92.0626 218.913C92.0251 218.95 90.2176 216.003 90.1276 215.8C89.0551 213.49 88.3351 208.405 90.4276 206.47C91.9351 205.075 94.2226 205.495 95.4076 207.07C96.6226 208.683 96.4651 211.15 95.9476 212.98Z" fill="black"/>
<path opacity="0.15" d="M124.748 269.559C124.823 269.649 124.898 269.731 124.973 269.814L124.358 271.734C124.065 271.381 123.765 271.014 123.458 270.639C122.588 269.581 121.68 268.426 120.758 267.241C120.443 267.414 118.65 268.389 116.865 269.079C117.158 271.209 116.205 275.266 116.078 275.791C117.368 276.196 118.62 276.571 119.813 276.916C120.63 277.149 121.425 277.374 122.183 277.576L120.983 279.039C120.443 278.881 119.895 278.716 119.333 278.536C118.02 278.131 116.633 277.674 115.208 277.194C114.953 277.682 112.853 281.626 111.195 282.909C109.695 284.071 107.453 285.136 105.51 284.611C103.613 284.094 102.368 282.129 103.103 280.209C104.123 277.546 109.11 276.316 111.653 276.459C111.803 276.466 113.415 276.736 114.435 276.924C113.858 276.721 113.288 276.534 112.695 276.324C111.518 275.911 110.348 275.461 109.095 274.981C108.495 274.726 107.895 274.472 107.28 274.216C106.673 273.977 106.058 273.639 105.435 273.354C104.01 272.656 102.6 271.876 101.205 271.066C100.838 272.101 99.4875 275.746 98.175 277.134C96.8625 278.514 94.815 279.901 92.82 279.676C90.8625 279.459 89.3325 277.697 89.7675 275.694C90.375 272.912 95.115 270.939 97.65 270.691C97.8075 270.676 99.645 270.699 100.65 270.736C99.81 270.241 98.97 269.746 98.1375 269.222C95.7375 267.692 93.3525 266.072 90.9675 264.467C90.24 263.972 89.505 263.491 88.77 263.004C88.6425 263.371 87.1275 267.744 85.6575 269.296C84.3525 270.676 82.2975 272.064 80.3025 271.839C78.345 271.621 76.815 269.859 77.25 267.856C77.85 265.074 82.5975 263.101 85.1325 262.854C85.32 262.839 87.9675 262.876 88.635 262.921C87.0225 261.856 85.4025 260.806 83.7675 259.839C81.51 258.496 79.2225 257.311 76.92 256.321C76.86 256.494 75.3 261.061 73.7925 262.651C72.48 264.031 70.4325 265.419 68.4375 265.194C66.48 264.977 64.95 263.214 65.385 261.211C65.985 258.429 70.7325 256.456 73.2675 256.209C73.4625 256.186 76.3125 256.231 76.8225 256.276C76.6875 256.216 76.5525 256.141 76.41 256.089C73.935 255.061 71.415 254.379 69.0225 253.861C67.635 253.554 66.285 253.336 64.9725 253.156C64.77 254.041 63.795 258.054 62.595 259.637C61.4475 261.152 59.5575 262.757 57.5475 262.757C55.575 262.749 53.865 261.174 54.075 259.134C54.3675 256.299 58.8675 253.824 61.3575 253.291C61.4925 253.261 62.9025 253.126 63.93 253.036C63.3375 252.961 62.7225 252.879 62.1525 252.819C60.0075 252.594 58.035 252.526 56.28 252.474C55.2825 252.451 54.3825 252.459 53.5425 252.467C52.89 253.224 50.235 256.261 48.4725 257.094C46.755 257.904 44.34 258.466 42.555 257.536C40.8075 256.621 40.02 254.431 41.145 252.722C42.7125 250.344 47.85 250.216 50.3025 250.891C50.5125 250.951 53.7225 252.249 53.685 252.294C53.685 252.294 53.655 252.331 53.6475 252.339C54.4575 252.309 55.3275 252.294 56.28 252.294C58.035 252.301 60.015 252.332 62.175 252.512C64.3275 252.684 66.6675 252.931 69.105 253.411C71.55 253.891 74.0925 254.522 76.635 255.512C76.665 255.519 76.695 255.541 76.7175 255.549C76.065 255.031 74.2875 253.517 74.16 253.382C72.42 251.522 70.155 246.916 71.535 244.419C72.5325 242.626 74.8425 242.311 76.455 243.436C78.105 244.584 78.7275 246.984 78.8025 248.882C78.885 251.027 77.13 255.324 76.9875 255.669C79.395 256.629 81.795 257.814 84.15 259.149C85.5 259.906 86.835 260.716 88.1625 261.541C87.615 261.076 87.12 260.649 87.06 260.589C85.32 258.729 83.055 254.124 84.435 251.626C85.4325 249.834 87.7425 249.519 89.355 250.644C91.005 251.791 91.6275 254.191 91.7025 256.089C91.7775 258.016 90.3525 261.714 89.9625 262.689C90.465 263.011 90.975 263.326 91.485 263.649C93.9075 265.201 96.3225 266.769 98.73 268.231C99.5775 268.749 100.433 269.221 101.288 269.701C100.8 269.289 100.395 268.929 100.335 268.869C98.595 267.009 96.33 262.396 97.71 259.906C98.7075 258.114 101.018 257.799 102.63 258.924C104.28 260.071 104.903 262.472 104.978 264.369C105.053 266.207 103.77 269.634 103.313 270.789C104.205 271.254 105.09 271.719 105.975 272.132C106.583 272.394 107.153 272.694 107.783 272.926C108.398 273.174 109.005 273.414 109.613 273.654C110.79 274.074 112.005 274.509 113.168 274.891C113.97 275.161 114.75 275.401 115.523 275.649C114.668 275.146 113.025 274.127 112.898 274.029C111.57 272.987 109.83 270.774 109.103 268.621C108.908 268.471 108.72 268.299 108.555 268.111C107.25 266.634 107.303 264.301 108.975 263.109C111.293 261.451 116.13 263.176 118.178 264.691C118.298 264.781 119.498 265.899 120.24 266.611C119.865 266.124 119.498 265.651 119.123 265.149C118.365 264.151 117.645 263.131 116.858 262.044C116.498 261.504 116.138 260.957 115.77 260.409C115.395 259.869 115.065 259.254 114.705 258.669C113.903 257.304 113.153 255.879 112.433 254.424C111.555 255.084 108.413 257.379 106.553 257.814C104.7 258.241 102.225 258.271 100.68 256.981C99.1725 255.714 98.865 253.411 100.335 251.979C102.375 249.991 107.423 250.966 109.673 252.151C109.815 252.226 111.33 253.262 112.155 253.847C111.728 252.969 111.3 252.099 110.895 251.199C109.733 248.597 108.638 245.934 107.535 243.279C107.198 242.469 106.853 241.659 106.508 240.849C106.2 241.089 102.525 243.902 100.44 244.382C98.5875 244.809 96.1125 244.839 94.5675 243.549C93.06 242.289 92.7525 239.979 94.2225 238.546C96.2625 236.559 101.31 237.534 103.56 238.719C103.733 238.809 105.915 240.301 106.448 240.706C105.69 238.929 104.918 237.159 104.085 235.449C102.945 233.087 101.693 230.829 100.313 228.736C100.17 228.849 96.345 231.796 94.215 232.291C92.3625 232.719 89.8875 232.749 88.3425 231.459C86.835 230.199 86.5275 227.889 87.9975 226.456C90.0375 224.469 95.085 225.444 97.335 226.629C97.515 226.719 99.8625 228.331 100.26 228.646C100.178 228.519 100.11 228.384 100.028 228.264C98.5275 226.044 96.8025 224.087 95.0925 222.324C94.1025 221.304 93.0975 220.381 92.1 219.504C91.4475 220.126 88.4175 222.939 86.5425 223.599C84.75 224.229 82.29 224.529 80.6175 223.411C78.975 222.324 78.42 220.059 79.725 218.477C81.5325 216.272 86.655 216.691 89.025 217.621C89.1525 217.674 90.405 218.334 91.3125 218.829C90.855 218.439 90.39 218.034 89.9475 217.666C88.2825 216.301 86.6775 215.147 85.2375 214.142C84.42 213.572 83.6625 213.076 82.9575 212.626C81.9975 212.904 78.105 213.962 76.1775 213.692C74.295 213.422 71.9775 212.559 71.0025 210.796C70.05 209.071 70.5975 206.807 72.4875 206.004C75.105 204.887 79.4625 207.609 81.135 209.529C81.2775 209.694 83.235 212.552 83.19 212.567C83.19 212.567 83.145 212.581 83.13 212.581C83.82 213.009 84.555 213.474 85.35 213.991C86.805 214.966 88.4475 216.084 90.15 217.427C91.8525 218.762 93.6675 220.254 95.4375 222.001C97.2075 223.749 98.985 225.677 100.56 227.904C100.575 227.927 100.59 227.956 100.613 227.986C100.358 227.191 99.705 224.949 99.675 224.769C99.2475 222.264 99.9 217.164 102.428 215.852C104.25 214.907 106.35 215.919 107.078 217.749C107.82 219.617 107.018 221.964 106.035 223.584C104.925 225.414 101.085 228.039 100.778 228.241C102.255 230.371 103.605 232.682 104.835 235.097C105.54 236.477 106.208 237.886 106.86 239.304C106.658 238.614 106.485 237.991 106.47 237.901C106.043 235.389 106.695 230.296 109.223 228.984C111.045 228.039 113.138 229.052 113.865 230.882C114.608 232.749 113.805 235.097 112.823 236.717C111.825 238.367 108.593 240.662 107.73 241.262C107.978 241.809 108.225 242.357 108.465 242.904C109.628 245.537 110.775 248.169 111.983 250.719C112.41 251.619 112.86 252.489 113.31 253.359C113.13 252.744 112.988 252.219 112.973 252.144C112.545 249.639 113.198 244.539 115.725 243.226C117.548 242.281 119.64 243.294 120.368 245.124C121.11 246.991 120.308 249.339 119.325 250.959C118.373 252.534 115.41 254.679 114.39 255.399C114.878 256.276 115.365 257.161 115.875 257.986C116.235 258.541 116.543 259.111 116.94 259.651C117.323 260.199 117.698 260.731 118.065 261.264C118.815 262.261 119.588 263.297 120.353 264.257C120.878 264.924 121.388 265.554 121.898 266.191C121.463 265.299 120.653 263.544 120.6 263.387C119.798 260.972 119.67 255.834 121.973 254.154C123.63 252.939 125.858 253.622 126.855 255.324C127.875 257.057 127.433 259.494 126.705 261.249C125.903 263.184 122.655 266.244 122.243 266.626C123.098 267.609 123.938 268.621 124.748 269.559Z" fill="black"/>
<path opacity="0.15" d="M64.6125 252.708C64.605 252.76 61.47 251.298 61.2825 251.178C59.115 249.843 55.71 245.995 56.385 243.228C56.8725 241.233 59.0175 240.325 60.87 240.978C62.7675 241.653 63.9975 243.798 64.575 245.613C65.25 247.743 64.6125 252.7 64.6125 252.708Z" fill="black"/>
</g>
<g opacity="0.15">
<path opacity="0.15" d="M278.933 212.98C279.548 215.125 282.81 218.913 282.817 218.913C282.855 218.95 284.662 216.003 284.752 215.8C285.825 213.49 286.545 208.405 284.452 206.47C282.945 205.075 280.657 205.495 279.473 207.07C278.258 208.683 278.408 211.15 278.933 212.98Z" fill="black"/>
<path opacity="0.15" d="M250.133 269.559C250.058 269.649 249.983 269.731 249.908 269.814L250.523 271.734C250.815 271.381 251.115 271.014 251.423 270.639C252.293 269.581 253.2 268.426 254.123 267.241C254.438 267.414 256.23 268.389 258.015 269.079C257.723 271.209 258.675 275.266 258.803 275.791C257.513 276.196 256.26 276.571 255.068 276.916C254.25 277.149 253.455 277.374 252.698 277.576L253.898 279.039C254.438 278.881 254.985 278.716 255.548 278.536C256.86 278.131 258.248 277.674 259.673 277.194C259.928 277.682 262.028 281.626 263.685 282.909C265.185 284.071 267.428 285.136 269.37 284.611C271.268 284.094 272.513 282.129 271.778 280.209C270.758 277.546 265.77 276.316 263.228 276.459C263.078 276.466 261.458 276.736 260.445 276.924C261.023 276.721 261.593 276.534 262.185 276.324C263.363 275.911 264.533 275.461 265.785 274.981C266.385 274.726 266.985 274.472 267.6 274.216C268.208 273.977 268.823 273.639 269.445 273.354C270.87 272.656 272.28 271.876 273.675 271.066C274.043 272.101 275.393 275.746 276.705 277.134C278.018 278.514 280.065 279.901 282.06 279.676C284.018 279.459 285.548 277.697 285.113 275.694C284.505 272.912 279.765 270.939 277.23 270.691C277.073 270.676 275.235 270.699 274.23 270.736C275.07 270.241 275.91 269.746 276.743 269.222C279.143 267.692 281.528 266.072 283.913 264.467C284.64 263.972 285.375 263.491 286.11 263.004C286.238 263.371 287.753 267.744 289.223 269.296C290.528 270.676 292.583 272.064 294.578 271.839C296.535 271.621 298.065 269.859 297.63 267.856C297.03 265.074 292.283 263.101 289.748 262.854C289.56 262.839 286.913 262.876 286.245 262.921C287.858 261.856 289.478 260.806 291.113 259.839C293.37 258.496 295.658 257.311 297.96 256.321C298.02 256.494 299.58 261.061 301.088 262.651C302.4 264.031 304.448 265.419 306.443 265.194C308.4 264.977 309.93 263.214 309.495 261.211C308.895 258.429 304.148 256.456 301.613 256.209C301.418 256.186 298.568 256.231 298.058 256.276C298.193 256.216 298.328 256.141 298.47 256.089C300.945 255.061 303.465 254.379 305.858 253.861C307.245 253.554 308.595 253.336 309.908 253.156C310.11 254.041 311.085 258.054 312.285 259.637C313.433 261.152 315.323 262.757 317.333 262.757C319.305 262.749 321.015 261.174 320.805 259.134C320.513 256.299 316.013 253.824 313.523 253.291C313.388 253.261 311.978 253.126 310.95 253.036C311.543 252.961 312.158 252.879 312.728 252.819C314.873 252.594 316.845 252.526 318.6 252.474C319.598 252.451 320.498 252.459 321.338 252.467C321.99 253.224 324.645 256.261 326.408 257.094C328.125 257.904 330.54 258.466 332.325 257.536C334.073 256.621 334.86 254.431 333.735 252.722C332.168 250.344 327.03 250.216 324.578 250.891C324.368 250.951 321.158 252.249 321.188 252.294C321.188 252.294 321.218 252.331 321.225 252.339C320.415 252.309 319.545 252.294 318.593 252.294C316.838 252.301 314.858 252.332 312.698 252.512C310.545 252.684 308.205 252.931 305.768 253.411C303.323 253.891 300.78 254.522 298.238 255.512C298.208 255.519 298.178 255.541 298.155 255.549C298.808 255.031 300.585 253.517 300.713 253.382C302.453 251.522 304.718 246.916 303.338 244.419C302.34 242.626 300.03 242.311 298.418 243.436C296.768 244.584 296.145 246.984 296.07 248.882C295.988 251.027 297.743 255.324 297.885 255.669C295.478 256.629 293.078 257.814 290.723 259.149C289.373 259.906 288.038 260.716 286.71 261.541C287.258 261.076 287.753 260.649 287.813 260.589C289.553 258.729 291.818 254.124 290.438 251.626C289.44 249.834 287.13 249.519 285.518 250.644C283.868 251.791 283.245 254.191 283.17 256.089C283.095 258.016 284.52 261.714 284.91 262.689C284.408 263.011 283.898 263.326 283.388 263.649C280.965 265.201 278.55 266.769 276.143 268.231C275.295 268.749 274.44 269.221 273.585 269.701C274.073 269.289 274.478 268.929 274.538 268.869C276.278 267.009 278.543 262.396 277.163 259.906C276.165 258.114 273.855 257.799 272.243 258.924C270.593 260.071 269.97 262.472 269.895 264.369C269.82 266.207 271.103 269.634 271.56 270.789C270.668 271.254 269.783 271.719 268.898 272.132C268.29 272.394 267.72 272.694 267.09 272.926C266.475 273.174 265.868 273.414 265.26 273.654C264.083 274.074 262.868 274.509 261.705 274.891C260.903 275.161 260.123 275.401 259.35 275.649C260.205 275.146 261.848 274.127 261.975 274.029C263.303 272.987 265.043 270.774 265.77 268.621C265.965 268.471 266.153 268.299 266.318 268.111C267.623 266.634 267.57 264.301 265.898 263.109C263.58 261.451 258.743 263.176 256.695 264.691C256.575 264.781 255.375 265.899 254.633 266.611C255.008 266.124 255.375 265.651 255.75 265.149C256.508 264.151 257.228 263.131 258.015 262.044C258.375 261.504 258.735 260.957 259.103 260.409C259.478 259.869 259.808 259.254 260.168 258.669C260.97 257.304 261.72 255.879 262.433 254.424C263.31 255.084 266.453 257.379 268.313 257.814C270.165 258.241 272.64 258.271 274.185 256.981C275.693 255.714 276 253.411 274.53 251.979C272.49 249.991 267.443 250.966 265.193 252.151C265.05 252.226 263.535 253.262 262.71 253.847C263.138 252.969 263.565 252.099 263.97 251.199C265.133 248.597 266.228 245.934 267.33 243.279C267.668 242.469 268.013 241.659 268.358 240.849C268.665 241.089 272.34 243.902 274.425 244.382C276.278 244.809 278.753 244.839 280.298 243.549C281.805 242.289 282.113 239.979 280.643 238.546C278.603 236.559 273.555 237.534 271.305 238.719C271.133 238.809 268.95 240.301 268.418 240.706C269.175 238.929 269.948 237.159 270.78 235.449C271.92 233.087 273.173 230.829 274.553 228.736C274.695 228.849 278.52 231.796 280.65 232.291C282.503 232.719 284.978 232.749 286.523 231.459C288.03 230.199 288.338 227.889 286.868 226.456C284.828 224.469 279.78 225.444 277.53 226.629C277.35 226.719 275.003 228.331 274.605 228.646C274.688 228.519 274.755 228.384 274.838 228.264C276.338 226.044 278.063 224.087 279.773 222.324C280.763 221.304 281.768 220.381 282.765 219.504C283.418 220.126 286.448 222.939 288.323 223.599C290.115 224.229 292.575 224.529 294.248 223.411C295.89 222.324 296.445 220.059 295.14 218.477C293.333 216.272 288.21 216.691 285.84 217.621C285.713 217.674 284.46 218.334 283.553 218.829C284.01 218.439 284.475 218.034 284.918 217.666C286.583 216.301 288.188 215.147 289.628 214.142C290.445 213.572 291.203 213.076 291.908 212.626C292.868 212.904 296.76 213.962 298.688 213.692C300.57 213.422 302.888 212.559 303.863 210.796C304.815 209.071 304.268 206.807 302.378 206.004C299.76 204.887 295.403 207.609 293.73 209.529C293.588 209.694 291.63 212.552 291.675 212.567C291.675 212.567 291.72 212.581 291.735 212.581C291.045 213.009 290.31 213.474 289.515 213.991C288.06 214.966 286.418 216.084 284.715 217.427C283.013 218.762 281.198 220.254 279.428 222.001C277.658 223.749 275.88 225.677 274.305 227.904C274.29 227.927 274.275 227.956 274.253 227.986C274.508 227.191 275.16 224.949 275.19 224.769C275.618 222.264 274.965 217.164 272.438 215.852C270.615 214.907 268.515 215.919 267.788 217.749C267.045 219.617 267.848 221.964 268.83 223.584C269.94 225.414 273.78 228.039 274.088 228.241C272.61 230.371 271.26 232.682 270.03 235.097C269.325 236.477 268.658 237.886 268.005 239.304C268.208 238.614 268.38 237.991 268.395 237.901C268.823 235.389 268.17 230.296 265.643 228.984C263.82 228.039 261.728 229.052 261 230.882C260.258 232.749 261.06 235.097 262.043 236.717C263.04 238.367 266.273 240.662 267.135 241.262C266.888 241.809 266.64 242.357 266.4 242.904C265.238 245.537 264.09 248.169 262.883 250.719C262.455 251.619 262.005 252.489 261.555 253.359C261.735 252.744 261.878 252.219 261.893 252.144C262.32 249.639 261.668 244.539 259.14 243.226C257.318 242.281 255.225 243.294 254.49 245.124C253.748 246.991 254.55 249.339 255.533 250.959C256.485 252.534 259.448 254.679 260.468 255.399C259.98 256.276 259.493 257.161 258.983 257.986C258.623 258.541 258.315 259.111 257.918 259.651C257.535 260.199 257.16 260.731 256.793 261.264C256.043 262.261 255.27 263.297 254.505 264.257C253.98 264.924 253.47 265.554 252.96 266.191C253.395 265.299 254.205 263.544 254.258 263.387C255.06 260.972 255.188 255.834 252.885 254.154C251.228 252.939 249 253.622 248.003 255.324C246.983 257.057 247.425 259.494 248.153 261.249C248.955 263.184 252.203 266.244 252.615 266.626C251.783 267.609 250.943 268.621 250.133 269.559Z" fill="black"/>
<path opacity="0.15" d="M310.268 252.708C310.275 252.76 313.41 251.298 313.598 251.178C315.765 249.843 319.17 245.995 318.495 243.228C318.008 241.233 315.863 240.325 314.01 240.978C312.113 241.653 310.883 243.798 310.305 245.613C309.63 247.743 310.268 252.7 310.268 252.708Z" fill="black"/>
</g>
<path d="M245.475 226.293L195.787 205.465L237.705 104.755L287.392 125.583L245.475 226.293Z" fill="#D1D1D1" stroke="#263238" stroke-miterlimit="10" stroke-linecap="round" stroke-linejoin="round"/>
<path d="M277.417 135.865C274.11 134.478 272.55 130.668 273.937 127.36C274.042 127.105 274.17 126.873 274.297 126.64L245.767 114.685C245.692 114.94 245.61 115.195 245.505 115.45C244.117 118.758 240.307 120.318 237 118.93C236.872 118.878 236.76 118.818 236.64 118.758L205.02 194.913C205.147 194.958 205.275 194.995 205.395 195.048C208.702 196.435 210.262 200.245 208.875 203.553C208.77 203.808 208.642 204.04 208.515 204.273L237.045 216.228C237.12 215.973 237.202 215.718 237.307 215.463C238.695 212.155 242.505 210.595 245.812 211.983C246.067 212.088 246.3 212.215 246.532 212.343L278.182 136.128C277.92 136.053 277.665 135.97 277.417 135.865ZM237.022 175.42C231.592 173.148 229.042 166.9 231.315 161.478C233.587 156.048 239.835 153.498 245.257 155.77C250.687 158.043 253.237 164.29 250.965 169.713C248.692 175.143 242.445 177.693 237.022 175.42Z" fill="white" stroke="#263238" stroke-miterlimit="10" stroke-linecap="round" stroke-linejoin="round"/>
<path d="M244.822 226.548L197.677 200.47L250.252 104.883L297.397 130.968L244.822 226.548Z" fill="#D1D1D1" stroke="#263238" stroke-miterlimit="10" stroke-linecap="round" stroke-linejoin="round"/>
<path d="M286.365 140.103C283.222 138.363 282.09 134.41 283.822 131.268C283.957 131.028 284.1 130.803 284.257 130.593L257.19 115.615C257.092 115.863 256.98 116.11 256.845 116.343C255.105 119.485 251.152 120.625 248.01 118.885C247.89 118.818 247.777 118.743 247.665 118.675L207.982 190.96C208.102 191.02 208.222 191.073 208.342 191.14C211.485 192.88 212.625 196.833 210.885 199.975C210.75 200.215 210.607 200.44 210.45 200.65L237.517 215.628C237.615 215.38 237.727 215.133 237.862 214.9C239.602 211.758 243.555 210.625 246.697 212.358C246.937 212.493 247.162 212.635 247.372 212.793L287.085 140.448C286.845 140.35 286.605 140.238 286.365 140.103ZM241.92 175.06C236.767 172.21 234.907 165.73 237.757 160.578C240.607 155.425 247.087 153.565 252.24 156.415C257.392 159.265 259.252 165.745 256.402 170.898C253.552 176.043 247.072 177.91 241.92 175.06Z" fill="white" stroke="#263238" stroke-miterlimit="10" stroke-linecap="round" stroke-linejoin="round"/>
<path d="M243.952 226.773L200.872 194.418L266.167 107.028L309.247 139.383L243.952 226.773Z" fill="#D1D1D1" stroke="#263238" stroke-miterlimit="10" stroke-linecap="round" stroke-linejoin="round"/>
<path d="M297.06 146.905C294.187 144.753 293.61 140.673 295.77 137.808C295.935 137.59 296.115 137.388 296.295 137.2L271.56 118.623C271.425 118.855 271.282 119.08 271.117 119.298C268.965 122.17 264.885 122.748 262.013 120.588C261.908 120.505 261.803 120.415 261.705 120.333L212.4 186.43C212.513 186.505 212.625 186.573 212.73 186.655C215.603 188.808 216.18 192.888 214.02 195.753C213.855 195.97 213.675 196.173 213.495 196.36L238.23 214.938C238.365 214.705 238.508 214.48 238.673 214.263C240.825 211.39 244.905 210.813 247.77 212.973C247.987 213.138 248.19 213.318 248.378 213.498L297.72 147.348C297.502 147.213 297.277 147.07 297.06 146.905ZM248.205 175.375C243.503 171.843 242.55 165.16 246.082 160.458C249.615 155.755 256.298 154.803 261 158.335C265.703 161.868 266.655 168.55 263.122 173.253C259.59 177.955 252.915 178.908 248.205 175.375Z" fill="white" stroke="#263238" stroke-miterlimit="10" stroke-linecap="round" stroke-linejoin="round"/>
<path d="M243.09 226.87L204.72 189.04L281.115 111.168L319.485 148.998L243.09 226.87Z" fill="#D1D1D1" stroke="#263238" stroke-miterlimit="10" stroke-linecap="round" stroke-linejoin="round"/>
<path d="M306.397 154.825C303.84 152.305 303.81 148.188 306.33 145.63C306.525 145.435 306.727 145.263 306.93 145.098L284.902 123.378C284.737 123.588 284.565 123.798 284.377 123.985C281.857 126.543 277.74 126.573 275.182 124.053C275.085 123.955 275.002 123.858 274.912 123.753L217.215 182.665C217.312 182.755 217.417 182.838 217.515 182.935C220.072 185.455 220.102 189.573 217.582 192.13C217.387 192.325 217.185 192.498 216.982 192.663L239.01 214.383C239.175 214.173 239.347 213.963 239.535 213.775C242.055 211.218 246.172 211.188 248.73 213.708C248.925 213.903 249.097 214.105 249.262 214.308L307.005 155.35C306.795 155.185 306.592 155.013 306.397 154.825ZM254.182 176.5C249.99 172.368 249.945 165.625 254.077 161.433C258.21 157.24 264.952 157.195 269.145 161.328C273.337 165.46 273.382 172.203 269.25 176.395C265.117 180.588 258.367 180.633 254.182 176.5Z" fill="white" stroke="#263238" stroke-miterlimit="10" stroke-linecap="round" stroke-linejoin="round"/>
<path d="M194.302 218.433L125.332 262.278L51.9299 146.388L120.9 102.543C123.412 100.945 126.742 101.688 128.34 104.2L195.952 210.993C197.557 213.505 196.815 216.835 194.302 218.433Z" fill="#A8A8A8" stroke="#263238" stroke-miterlimit="10" stroke-linecap="round" stroke-linejoin="round"/>
<path d="M192.36 218.508L123.39 262.353L49.9949 146.463L118.965 102.618C121.477 101.02 124.807 101.763 126.405 104.275L194.017 211.068C195.615 213.58 194.872 216.91 192.36 218.508Z" fill="white" stroke="#263238" stroke-miterlimit="10" stroke-linecap="round" stroke-linejoin="round"/>
<path d="M190.11 220.038L121.14 263.883L47.7374 147.993L116.707 104.148C119.22 102.55 122.55 103.293 124.147 105.805L191.76 212.598C193.365 215.11 192.622 218.44 190.11 220.038Z" fill="#A8A8A8" stroke="#263238" stroke-miterlimit="10" stroke-linecap="round" stroke-linejoin="round"/>
<path d="M84.6074 162.4L79.3049 154.06L81.3749 152.748C81.8774 152.433 82.3349 152.268 82.7474 152.26C83.1599 152.253 83.5424 152.38 83.9024 152.635C84.2549 152.89 84.5924 153.265 84.8999 153.753C85.1774 154.195 85.3424 154.623 85.3949 155.043C85.4474 155.463 85.3724 155.86 85.1849 156.228C84.9974 156.595 84.6749 156.925 84.2174 157.21L83.3024 157.795L85.7699 161.68L84.6074 162.4ZM82.7774 156.94L83.3099 156.603C83.6474 156.393 83.8874 156.183 84.0299 155.988C84.1724 155.793 84.2249 155.568 84.1874 155.328C84.1499 155.088 84.0224 154.795 83.8049 154.45C83.5499 154.053 83.3249 153.768 83.1374 153.588C82.9424 153.415 82.7249 153.34 82.4924 153.378C82.2524 153.415 81.9374 153.558 81.5474 153.805L80.9999 154.15L82.7774 156.94Z" fill="white"/>
<path d="M88.71 159.79L85.1775 150.325L86.3025 149.613L93.3825 156.82L92.28 157.518L90.5625 155.658L88.86 156.738L89.7975 159.093L88.71 159.79ZM88.4925 155.808L89.88 154.923L86.79 151.608L88.4925 155.808Z" fill="white"/>
<path d="M96.2549 155.125C95.7749 155.433 95.3099 155.583 94.8599 155.575C94.4099 155.575 93.9899 155.44 93.5924 155.185C93.1949 154.923 92.8349 154.563 92.4974 154.105L93.3524 153.175C93.5624 153.46 93.7874 153.715 94.0349 153.94C94.2824 154.165 94.5449 154.315 94.8224 154.39C95.0999 154.458 95.3849 154.405 95.6774 154.218C95.9774 154.023 96.1574 153.798 96.2024 153.528C96.2474 153.258 96.1724 152.973 95.9699 152.658C95.7299 152.283 95.4524 152.028 95.1299 151.908C94.8149 151.788 94.4474 151.69 94.0424 151.623L91.8599 151.278C91.4324 151.21 91.0649 151.075 90.7499 150.873C90.4424 150.67 90.1499 150.363 89.8874 149.943C89.4974 149.335 89.3699 148.75 89.5124 148.188C89.6474 147.625 90.0224 147.16 90.6224 146.77C90.9524 146.56 91.2674 146.418 91.5749 146.343C91.8824 146.268 92.1749 146.268 92.4524 146.343C92.7374 146.418 93.0074 146.553 93.2849 146.763C93.5549 146.973 93.8249 147.243 94.0874 147.588L93.2699 148.48C93.0749 148.218 92.8724 147.993 92.6624 147.805C92.4524 147.618 92.2274 147.498 91.9874 147.453C91.7399 147.408 91.4774 147.483 91.1924 147.663C90.9074 147.843 90.7274 148.068 90.6674 148.323C90.6074 148.578 90.6674 148.863 90.8624 149.163C91.0274 149.418 91.1999 149.598 91.3874 149.71C91.5749 149.823 91.8224 149.898 92.1224 149.95L94.3199 150.288C94.8074 150.363 95.2949 150.513 95.7824 150.738C96.2624 150.963 96.6749 151.338 97.0049 151.863C97.2674 152.275 97.4099 152.688 97.4249 153.093C97.4399 153.498 97.3499 153.88 97.1549 154.225C96.9374 154.578 96.6449 154.878 96.2549 155.125Z" fill="white"/>
<path d="M101.122 152.028C100.642 152.335 100.177 152.485 99.7274 152.478C99.2774 152.478 98.8574 152.343 98.4599 152.088C98.0624 151.833 97.7024 151.465 97.3649 151.008L98.2199 150.078C98.4299 150.363 98.6549 150.618 98.9024 150.843C99.1499 151.068 99.4124 151.218 99.6899 151.293C99.9674 151.36 100.252 151.308 100.545 151.12C100.845 150.925 101.025 150.7 101.07 150.43C101.115 150.16 101.04 149.875 100.837 149.56C100.597 149.185 100.32 148.93 99.9974 148.81C99.6824 148.69 99.3149 148.593 98.9099 148.525L96.7274 148.18C96.2999 148.113 95.9324 147.978 95.6174 147.775C95.3099 147.573 95.0174 147.265 94.7549 146.845C94.3649 146.238 94.2374 145.653 94.3799 145.09C94.5149 144.528 94.8899 144.063 95.4899 143.673C95.8199 143.463 96.1349 143.32 96.4424 143.245C96.7499 143.17 97.0424 143.17 97.3199 143.245C97.6049 143.32 97.8749 143.455 98.1524 143.665C98.4224 143.875 98.6924 144.145 98.9549 144.49L98.1374 145.383C97.9424 145.12 97.7399 144.895 97.5299 144.708C97.3199 144.52 97.0949 144.4 96.8549 144.355C96.6074 144.31 96.3449 144.385 96.0599 144.565C95.7749 144.745 95.5949 144.97 95.5349 145.225C95.4749 145.48 95.5349 145.765 95.7299 146.065C95.8949 146.32 96.0674 146.5 96.2549 146.613C96.4424 146.725 96.6899 146.8 96.9899 146.853L99.1874 147.19C99.6749 147.265 100.162 147.415 100.65 147.64C101.13 147.865 101.542 148.24 101.872 148.765C102.135 149.178 102.277 149.59 102.292 149.995C102.307 150.4 102.217 150.783 102.022 151.128C101.805 151.488 101.512 151.78 101.122 152.028Z" fill="white"/>
<path d="M103.965 150.093L98.6624 141.753L100.732 140.44C101.235 140.125 101.692 139.96 102.105 139.952C102.517 139.945 102.9 140.072 103.26 140.327C103.612 140.582 103.95 140.957 104.257 141.445C104.535 141.888 104.7 142.315 104.752 142.735C104.805 143.155 104.73 143.553 104.542 143.92C104.355 144.288 104.032 144.618 103.575 144.903L102.66 145.488L105.127 149.373L103.965 150.093ZM102.135 144.64L102.667 144.303C103.005 144.093 103.245 143.883 103.387 143.688C103.53 143.493 103.582 143.268 103.545 143.028C103.507 142.788 103.38 142.495 103.162 142.15C102.907 141.753 102.682 141.467 102.495 141.287C102.3 141.115 102.082 141.04 101.85 141.077C101.61 141.115 101.295 141.258 100.905 141.505L100.357 141.85L102.135 144.64Z" fill="white"/>
<path d="M111.097 145.69C110.535 146.05 110.017 146.223 109.537 146.215C109.065 146.208 108.622 146.05 108.217 145.735C107.812 145.42 107.437 144.985 107.085 144.438L105.075 141.28C104.722 140.733 104.497 140.215 104.4 139.72C104.295 139.233 104.347 138.775 104.542 138.355C104.745 137.935 105.127 137.545 105.69 137.185C106.252 136.825 106.77 136.653 107.235 136.653C107.7 136.653 108.127 136.81 108.525 137.103C108.922 137.403 109.29 137.823 109.642 138.37L111.66 141.543C112.005 142.083 112.23 142.608 112.342 143.103C112.455 143.605 112.41 144.07 112.222 144.498C112.035 144.933 111.66 145.33 111.097 145.69ZM110.52 144.775C110.827 144.58 111.022 144.37 111.097 144.138C111.172 143.913 111.165 143.665 111.075 143.403C110.985 143.14 110.842 142.848 110.64 142.54L108.315 138.888C108.12 138.58 107.925 138.333 107.722 138.145C107.527 137.958 107.31 137.853 107.077 137.83C106.845 137.808 106.575 137.898 106.26 138.093C105.952 138.288 105.757 138.498 105.667 138.723C105.585 138.948 105.585 139.188 105.667 139.443C105.757 139.698 105.892 139.983 106.095 140.29L108.42 143.943C108.615 144.25 108.817 144.505 109.02 144.7C109.222 144.895 109.44 145.008 109.687 145.03C109.935 145.053 110.205 144.97 110.52 144.775Z" fill="white"/>
<path d="M114.457 143.425L109.155 135.085L110.835 134.02C111.39 133.668 111.9 133.45 112.357 133.368C112.815 133.285 113.235 133.353 113.617 133.563C114 133.78 114.36 134.148 114.697 134.68C114.9 135.003 115.057 135.318 115.155 135.625C115.252 135.933 115.282 136.225 115.252 136.503C115.215 136.78 115.102 137.043 114.907 137.275L118.747 140.703L117.622 141.415L114.045 138.198L113.137 138.775L115.627 142.69L114.457 143.425ZM112.605 137.935L113.047 137.65C113.377 137.44 113.617 137.23 113.775 137.013C113.932 136.803 113.992 136.563 113.962 136.3C113.932 136.038 113.805 135.73 113.58 135.378C113.272 134.89 112.957 134.598 112.642 134.493C112.327 134.388 111.907 134.508 111.375 134.845L110.857 135.175L112.605 137.935Z" fill="white"/>
<path d="M120.72 139.443L115.965 131.965L114.555 132.865L114.007 132.003L117.952 129.498L118.5 130.36L117.127 131.23L121.882 138.708L120.72 139.443Z" fill="white"/>
<path d="M150.618 191.314C153.897 177.256 145.157 163.202 131.099 159.923C117.04 156.645 102.986 165.384 99.7077 179.443C96.4294 193.501 105.169 207.556 119.227 210.834C133.286 214.112 147.34 205.373 150.618 191.314Z" stroke="white" stroke-miterlimit="10"/>
<path d="M139.185 207.44C144.408 204.12 142.363 191.553 134.619 179.371C126.874 167.189 116.362 160.005 111.14 163.325C105.918 166.645 107.962 179.212 115.707 191.394C123.451 203.576 133.963 210.76 139.185 207.44Z" stroke="white" stroke-miterlimit="10"/>
<path d="M101.79 174.025L124.928 159.318" stroke="white" stroke-miterlimit="10"/>
<path d="M99.1875 188.935L139.53 163.285" stroke="white" stroke-miterlimit="10"/>
<path d="M110.917 207.4L151.267 181.75" stroke="white" stroke-miterlimit="10"/>
<path d="M103.05 199.443L147.412 171.25" stroke="white" stroke-miterlimit="10"/>
<path d="M125.737 211.698L148.875 196.99" stroke="white" stroke-miterlimit="10"/>
<path d="M246.965 329.188C279.675 296.478 279.675 243.444 246.965 210.734C214.255 178.024 161.222 178.024 128.512 210.734C95.8017 243.444 95.8017 296.478 128.512 329.188C161.222 361.898 214.255 361.898 246.965 329.188Z" fill="#FF6D63" stroke="#263238" stroke-miterlimit="10" stroke-linecap="round" stroke-linejoin="round"/>
<path d="M170.917 347.455C175.372 348.423 179.932 349.015 184.567 349.195" stroke="#263238" stroke-miterlimit="10" stroke-linecap="round" stroke-linejoin="round"/>
<path d="M160.65 344.478C162.923 345.303 165.233 346.03 167.58 346.653" stroke="#263238" stroke-miterlimit="10" stroke-linecap="round" stroke-linejoin="round"/>
<path d="M111.472 248.268C107.97 260.538 107.385 273.82 110.347 287.148C116.205 313.51 134.55 333.865 157.785 343.368" stroke="#263238" stroke-miterlimit="10" stroke-linecap="round" stroke-linejoin="round"/>
<path d="M122.13 225.46C119.273 229.675 116.813 234.168 114.81 238.863" stroke="#263238" stroke-miterlimit="10" stroke-linecap="round" stroke-linejoin="round"/>
<path d="M176.392 232.758L184.927 234.528L187.837 237.55L191.632 238.135L192.84 241.735L191.955 244.173L189.367 245.358L183.03 244.323L182.857 243.543L185.857 241.45L183.787 237.633L178.117 236.86L175.095 234.273L176.392 232.758Z" fill="white"/>
<path d="M245.205 311.553L238.432 310.405L230.257 309.37L224.242 310.705L218.355 310.788L212.445 313.525L208.995 314.493L206.857 314.965L203.302 318.198L199.762 320.613L193.792 318.475L193.942 312.738L190.342 312.115L186.465 312.978L185.497 311.358L185.107 307.78L183.315 306.138L180.682 307.128L180.337 309.243L177.082 310.173L173.392 307.323L171.195 302.92L172.897 296.838L178.612 295.975L180.465 296.988L182.797 296.47L185.317 294.078L188.01 294.295L192.84 299.538L194.152 299.043L192.772 294.663L191.092 292.593L190.665 288.82L197.152 284.118L196.53 276.723L199.072 273.513L200.602 268.488L202.455 267.67L206.272 263.77L206.122 262.173L203.062 263.058L202.132 261.633L199.995 262.105L196.867 263.613L197.857 260.748L204.217 257.298L205.38 255.205L209.047 258.873L211.185 260.23L213.727 258.85L212.002 256.585L207.277 254.583L201.457 250.375L195.87 248.155L191.04 248.41L188.197 246.595L184.92 246.505L184.702 247.368L185.565 253.083L186.772 254.853L186.405 261.453L181.837 259.21L181.815 256.368L177.307 255.333L175.087 253.585L174.982 248.515L179.707 243.19L179.062 238.45L176.97 239.118L175.222 237.67L173.992 234.888L172.59 234.993L172.5 238.27L170.452 239.133L167.977 232.555L166.207 231.933L163.23 231.37L160.47 233.613L165.172 236.44L166.68 239.568L158.527 235.878L152.512 231.715L150.96 226.563L145.567 226.128L142.245 229.51C142.245 229.51 140.565 231.108 139.68 231.708C138.795 232.308 135.195 233.515 135.195 233.515L135.15 236.988L130.732 238.173L131.595 240.22L139.035 239.793L143.625 243.048L145.132 249.843L144.337 256.33L146.145 262.645L142.822 273.363L144.802 287.785L148.357 295.548L152.257 301.195L155.257 300.94L153.6 298.053L151.53 296.065L149.61 292.015L151.267 291.243L155.535 297.625L158.857 303.408L159.975 308.455L164.655 312.1L172.327 315.49L183.022 315.963L186.772 318.183L189.787 320.77L193.755 322.128L198.285 322.345L202.507 321.205C202.507 321.205 202.747 323.185 202.957 324.16C203.175 325.128 201.187 329.035 201.187 329.035L199.912 333.393L202.41 337.315L207.067 338.11L214.462 342.985L217.44 343.548L218.085 346.458L218.722 347.74C233.61 341.823 246.09 331.9 255.165 319.54L254.955 318.108L258.082 307.435L255.172 306.25L245.205 311.553Z" fill="white"/>
<path d="M248.362 230.418L245.407 227.208L241.74 223.54L239.67 217.893L243.292 217.698L243.052 215.718L240.487 216.085L242.407 214.638L244.432 212.763L244.005 210.82L240.99 208.233L239.565 204.168C220.5 189.168 195.105 182.53 169.575 188.193C157.972 190.773 147.472 195.648 138.435 202.225L143.617 204.4L141.675 208.495L138.157 210.093L138.93 215.418L137.505 216.348L136.035 218.913L137.002 222.363L140.385 222.018L139.762 225.618L143.062 224.883L147.097 216.453L146.992 213.22L152.34 211.623L153.18 208.99L158.677 207.16L158.527 203.733L162.562 202.63C162.562 202.63 165.127 200.433 165.712 200.305C166.297 200.178 169.23 200.545 169.23 200.545L172.657 202.225L176.73 201.318L179.752 198.408L184.305 197.808C184.305 197.808 185.64 198.325 186.615 198.108C187.582 197.89 190.192 195.888 190.192 195.888L196.597 198.13L199.312 199.36L199.957 202.27L202.957 202.015L203.542 200.05L206.325 200.658L206.475 202.255L201 205.098L205.245 208.638L213.09 210.97L216.862 214.203L221.22 213.64L221.76 211.488L223.23 210.753L217.32 207.993L214.132 208.293L216.48 206.958L213.42 204.175L216.675 203.245L221.46 204.625L223.462 209.065L226.155 211.113L229.147 216.355L234.105 218.515L235.53 224.92L240.637 226.84L240.915 229.015L240.892 231.67L242.835 234.903L243.607 236.56L247.035 236.41L247.852 232.765L248.362 230.418Z" fill="white"/>
<path d="M246.54 210.31L246.787 211.428L246.51 214.75L247.695 217.338L250.005 217.638L250.822 221.328L248.28 220.878L250.027 231.483L248.647 236.268L251.407 241.36L254.445 243.13L256.77 253.608L261.105 261.198L265.2 266.808L269.925 266.98L270.615 262.758L271.14 262.12C270.81 258.7 270.277 255.258 269.512 251.815C265.867 235.435 257.67 221.26 246.54 210.31Z" fill="white"/>
<path d="M201.442 219.055L187.387 216.265L181.8 217.713L181.267 221.703L178.372 219.693L174.322 221.613L175.357 228.1L179.407 229.848L181.11 225.603L184.672 227.868L191.85 231.775L194.265 237.138L200.73 242.425L208.582 239.253L207.742 236.388L205.26 233.478L203.145 225.798L204.36 222.07L201.442 219.055Z" fill="white"/>
<path d="M212.872 220.998L209.79 220.863L207.742 223.563L210.352 228.888L212.872 228.325V220.998Z" fill="white"/>
<path d="M231.742 220.675L224.362 218.643L222.487 216.618L221.07 217.548L223.29 221.125L225.57 225.91L228.742 226.428L229.147 225.528L226.755 223L232.237 223.818L231.742 220.675Z" fill="white"/>
<path d="M190.635 303.31L190.027 304.263L196.237 304.713L199.17 306.91L202.942 306.483L203.827 304.045L199.192 304.263L190.635 303.31Z" fill="white"/>
<path d="M208.725 303.16L204.907 305.23L205.83 306.655L210.877 305.538L211.5 303.768L209.797 304.353L208.725 303.16Z" fill="white"/>
<path d="M176.392 232.758L184.927 234.528L187.837 237.55L191.632 238.135L192.84 241.735L191.955 244.173L189.367 245.358L183.03 244.323L182.857 243.543L185.857 241.45L183.787 237.633L178.117 236.86L175.095 234.273L176.392 232.758Z" stroke="#263238" stroke-miterlimit="10" stroke-linecap="round" stroke-linejoin="round"/>
<path d="M245.205 311.553L238.432 310.405L230.257 309.37L224.242 310.705L218.355 310.788L212.445 313.525L208.995 314.493L206.857 314.965L203.302 318.198L199.762 320.613L193.792 318.475L193.942 312.738L190.342 312.115L186.465 312.978L185.497 311.358L185.107 307.78L183.315 306.138L180.682 307.128L180.337 309.243L177.082 310.173L173.392 307.323L171.195 302.92L172.897 296.838L178.612 295.975L180.465 296.988L182.797 296.47L185.317 294.078L188.01 294.295L192.84 299.538L194.152 299.043L192.772 294.663L191.092 292.593L190.665 288.82L197.152 284.118L196.53 276.723L199.072 273.513L200.602 268.488L202.455 267.67L206.272 263.77L206.122 262.173L203.062 263.058L202.132 261.633L199.995 262.105L196.867 263.613L197.857 260.748L204.217 257.298L205.38 255.205L209.047 258.873L211.185 260.23L213.727 258.85L212.002 256.585L207.277 254.583L201.457 250.375L195.87 248.155L191.04 248.41L188.197 246.595L184.92 246.505L184.702 247.368L185.565 253.083L186.772 254.853L186.405 261.453L181.837 259.21L181.815 256.368L177.307 255.333L175.087 253.585L174.982 248.515L179.707 243.19L179.062 238.45L176.97 239.118L175.222 237.67L173.992 234.888L172.59 234.993L172.5 238.27L170.452 239.133L167.977 232.555L166.207 231.933L163.23 231.37L160.47 233.613L165.172 236.44L166.68 239.568L158.527 235.878L152.512 231.715L150.96 226.563L145.567 226.128L142.245 229.51C142.245 229.51 140.565 231.108 139.68 231.708C138.795 232.308 135.195 233.515 135.195 233.515L135.15 236.988L130.732 238.173L131.595 240.22L139.035 239.793L143.625 243.048L145.132 249.843L144.337 256.33L146.145 262.645L142.822 273.363L144.802 287.785L148.357 295.548L152.257 301.195L155.257 300.94L153.6 298.053L151.53 296.065L149.61 292.015L151.267 291.243L155.535 297.625L158.857 303.408L159.975 308.455L164.655 312.1L172.327 315.49L183.022 315.963L186.772 318.183L189.787 320.77L193.755 322.128L198.285 322.345L202.507 321.205C202.507 321.205 202.747 323.185 202.957 324.16C203.175 325.128 201.187 329.035 201.187 329.035L199.912 333.393L202.41 337.315L207.067 338.11L214.462 342.985L217.44 343.548L218.085 346.458L218.722 347.74C233.61 341.823 246.09 331.9 255.165 319.54L254.955 318.108L258.082 307.435L255.172 306.25L245.205 311.553Z" stroke="#263238" stroke-miterlimit="10" stroke-linecap="round" stroke-linejoin="round"/>
<path d="M248.362 230.418L245.407 227.208L241.74 223.54L239.67 217.893L243.292 217.698L243.052 215.718L240.487 216.085L242.407 214.638L244.432 212.763L244.005 210.82L240.99 208.233L239.565 204.168C220.5 189.168 195.105 182.53 169.575 188.193C157.972 190.773 147.472 195.648 138.435 202.225L143.617 204.4L141.675 208.495L138.157 210.093L138.93 215.418L137.505 216.348L136.035 218.913L137.002 222.363L140.385 222.018L139.762 225.618L143.062 224.883L147.097 216.453L146.992 213.22L152.34 211.623L153.18 208.99L158.677 207.16L158.527 203.733L162.562 202.63C162.562 202.63 165.127 200.433 165.712 200.305C166.297 200.178 169.23 200.545 169.23 200.545L172.657 202.225L176.73 201.318L179.752 198.408L184.305 197.808C184.305 197.808 185.64 198.325 186.615 198.108C187.582 197.89 190.192 195.888 190.192 195.888L196.597 198.13L199.312 199.36L199.957 202.27L202.957 202.015L203.542 200.05L206.325 200.658L206.475 202.255L201 205.098L205.245 208.638L213.09 210.97L216.862 214.203L221.22 213.64L221.76 211.488L223.23 210.753L217.32 207.993L214.132 208.293L216.48 206.958L213.42 204.175L216.675 203.245L221.46 204.625L223.462 209.065L226.155 211.113L229.147 216.355L234.105 218.515L235.53 224.92L240.637 226.84L240.915 229.015L240.892 231.67L242.835 234.903L243.607 236.56L247.035 236.41L247.852 232.765L248.362 230.418Z" stroke="#263238" stroke-miterlimit="10" stroke-linecap="round" stroke-linejoin="round"/>
<path d="M246.54 210.31L246.787 211.428L246.51 214.75L247.695 217.338L250.005 217.638L250.822 221.328L248.28 220.878L250.027 231.483L248.647 236.268L251.407 241.36L254.445 243.13L256.77 253.608L261.105 261.198L265.2 266.808L269.925 266.98L270.615 262.758L271.14 262.12C270.81 258.7 270.277 255.258 269.512 251.815C265.867 235.435 257.67 221.26 246.54 210.31Z" stroke="#263238" stroke-miterlimit="10" stroke-linecap="round" stroke-linejoin="round"/>
<path d="M201.442 219.055L187.387 216.265L181.8 217.713L181.267 221.703L178.372 219.693L174.322 221.613L175.357 228.1L179.407 229.848L181.11 225.603L184.672 227.868L191.85 231.775L194.265 237.138L200.73 242.425L208.582 239.253L207.742 236.388L205.26 233.478L203.145 225.798L204.36 222.07L201.442 219.055Z" stroke="#263238" stroke-miterlimit="10" stroke-linecap="round" stroke-linejoin="round"/>
<path d="M212.872 220.998L209.79 220.863L207.742 223.563L210.352 228.888L212.872 228.325V220.998Z" stroke="#263238" stroke-miterlimit="10" stroke-linecap="round" stroke-linejoin="round"/>
<path d="M231.742 220.675L224.362 218.643L222.487 216.618L221.07 217.548L223.29 221.125L225.57 225.91L228.742 226.428L229.147 225.528L226.755 223L232.237 223.818L231.742 220.675Z" stroke="#263238" stroke-miterlimit="10" stroke-linecap="round" stroke-linejoin="round"/>
<path d="M190.635 303.31L190.027 304.263L196.237 304.713L199.17 306.91L202.942 306.483L203.827 304.045L199.192 304.263L190.635 303.31Z" stroke="#263238" stroke-miterlimit="10" stroke-linecap="round" stroke-linejoin="round"/>
<path d="M208.725 303.16L204.907 305.23L205.83 306.655L210.877 305.538L211.5 303.768L209.797 304.353L208.725 303.16Z" stroke="#263238" stroke-miterlimit="10" stroke-linecap="round" stroke-linejoin="round"/>
<path d="M265.665 213.16C259.26 213.16 254.07 218.35 254.07 224.755C254.07 231.16 265.665 244.083 265.665 244.083C265.665 244.083 277.26 231.16 277.26 224.755C277.268 218.35 272.07 213.16 265.665 213.16ZM265.665 229.863C262.845 229.863 260.558 227.575 260.558 224.755C260.558 221.935 262.845 219.648 265.665 219.648C268.485 219.648 270.773 221.935 270.773 224.755C270.773 227.575 268.485 229.863 265.665 229.863Z" fill="#263238" stroke="#263238" stroke-miterlimit="10"/>
<path d="M175.687 242.928C170.1 242.928 165.57 247.458 165.57 253.045C165.57 258.633 175.687 269.905 175.687 269.905C175.687 269.905 185.805 258.633 185.805 253.045C185.805 247.458 181.275 242.928 175.687 242.928ZM175.687 257.5C173.227 257.5 171.232 255.505 171.232 253.045C171.232 250.585 173.227 248.59 175.687 248.59C178.147 248.59 180.142 250.585 180.142 253.045C180.142 255.505 178.147 257.5 175.687 257.5Z" fill="#263238" stroke="#263238" stroke-miterlimit="10"/>
<path d="M213.945 321.828C211.133 321.828 208.853 324.108 208.853 326.92C208.853 329.733 213.945 335.403 213.945 335.403C213.945 335.403 219.038 329.733 219.038 326.92C219.038 324.108 216.75 321.828 213.945 321.828ZM213.945 329.155C212.708 329.155 211.703 328.15 211.703 326.913C211.703 325.675 212.708 324.67 213.945 324.67C215.183 324.67 216.188 325.675 216.188 326.913C216.18 328.15 215.183 329.155 213.945 329.155Z" fill="#263238" stroke="#263238" stroke-miterlimit="10"/>
<path d="M150.66 274.84C147.848 274.84 145.568 277.12 145.568 279.933C145.568 282.745 150.66 288.415 150.66 288.415C150.66 288.415 155.753 282.745 155.753 279.933C155.753 277.12 153.473 274.84 150.66 274.84ZM150.66 282.175C149.423 282.175 148.418 281.17 148.418 279.933C148.418 278.695 149.423 277.69 150.66 277.69C151.898 277.69 152.903 278.695 152.903 279.933C152.903 281.17 151.898 282.175 150.66 282.175Z" fill="#263238" stroke="#263238" stroke-miterlimit="10"/>
<path d="M168.66 296.26C165.848 296.26 163.568 298.54 163.568 301.353C163.568 304.165 168.66 309.835 168.66 309.835C168.66 309.835 173.753 304.165 173.753 301.353C173.753 298.54 171.473 296.26 168.66 296.26ZM168.66 303.595C167.423 303.595 166.418 302.59 166.418 301.353C166.418 300.115 167.423 299.11 168.66 299.11C169.898 299.11 170.903 300.115 170.903 301.353C170.903 302.59 169.898 303.595 168.66 303.595Z" fill="#263238" stroke="#263238" stroke-miterlimit="10"/>
<path d="M231.877 305.875C228.547 305.875 225.84 308.575 225.84 311.913C225.84 315.243 231.877 321.97 231.877 321.97C231.877 321.97 237.907 315.243 237.907 311.913C237.907 308.575 235.207 305.875 231.877 305.875ZM231.877 314.568C230.407 314.568 229.222 313.375 229.222 311.913C229.222 310.443 230.415 309.258 231.877 309.258C233.347 309.258 234.532 310.45 234.532 311.913C234.532 313.375 233.34 314.568 231.877 314.568Z" fill="#263238" stroke="#263238" stroke-miterlimit="10"/>
<path d="M231.435 190.518C228.473 190.518 226.073 192.918 226.073 195.88C226.073 198.843 231.435 204.813 231.435 204.813C231.435 204.813 236.798 198.843 236.798 195.88C236.798 192.918 234.397 190.518 231.435 190.518ZM231.435 198.235C230.13 198.235 229.073 197.178 229.073 195.873C229.073 194.568 230.13 193.51 231.435 193.51C232.74 193.51 233.798 194.568 233.798 195.873C233.798 197.178 232.74 198.235 231.435 198.235Z" fill="#263238" stroke="#263238" stroke-miterlimit="10"/>
<path d="M139.717 224.028C136.755 224.028 134.355 226.428 134.355 229.39C134.355 232.353 139.717 238.323 139.717 238.323C139.717 238.323 145.08 232.353 145.08 229.39C145.072 226.42 142.672 224.028 139.717 224.028ZM139.717 231.745C138.412 231.745 137.355 230.688 137.355 229.383C137.355 228.078 138.412 227.02 139.717 227.02C141.022 227.02 142.08 228.078 142.08 229.383C142.08 230.688 141.015 231.745 139.717 231.745Z" fill="#263238" stroke="#263238" stroke-miterlimit="10"/>
<path d="M203.295 108.625C203.295 108.625 202.83 150.843 202.83 157.825C202.83 164.808 202.245 171.55 202.245 171.55C202.245 171.55 204.338 173.065 203.993 174.805C203.64 176.553 202.365 179.11 202.365 179.11C202.365 179.11 200.738 178.758 199.92 178.99C199.103 179.223 194.22 181.435 193.41 181.435C192.593 181.435 192.248 182.133 192.015 179.92C191.783 177.708 191.663 176.2 191.783 173.988C191.903 171.775 192.6 168.753 192.6 168.753L187.718 115.368L186.555 167.358C186.555 167.358 186.788 170.5 187.14 171.078C187.493 171.663 188.07 173.17 188.07 173.755C188.07 174.34 187.02 179.8 186.555 180.033C186.09 180.265 184.695 181.083 184.695 181.083C184.695 181.083 183.765 180.85 182.483 179.223C181.2 177.595 178.178 177.708 177.6 177.94C177.015 178.173 177.015 178.173 177.015 178.173C177.015 178.173 175.268 176.08 174.923 174.565C174.57 173.05 176.903 172.938 176.783 168.865C176.663 164.793 173.175 130.248 173.175 130.248L172.358 106.983L203.528 106.053L203.295 108.625Z" fill="#263238" stroke="#263238" stroke-miterlimit="10"/>
<path d="M191.085 54.6552L178.642 55.4727L178.177 108.625C178.177 108.625 179.107 109.443 186.787 109.555C194.467 109.668 196.095 108.738 196.095 108.738L191.085 54.6552Z" fill="white" stroke="#263238" stroke-miterlimit="10"/>
<path d="M190.32 28.4802C190.32 28.4802 193.365 32.7777 193.312 33.4302C193.26 34.0827 192.93 35.3352 192.93 35.3352C192.93 35.3352 196.245 38.7627 195.922 39.0327C195.6 39.3027 194.077 40.6077 194.077 40.6077C194.077 40.6077 194.13 43.8177 194.13 44.3052C194.13 44.7927 194.835 46.0452 194.617 46.5327C194.4 47.0202 193.965 47.7252 193.582 48.0552C193.2 48.3777 190.432 48.3252 190.432 48.3252L190.38 52.7277C190.38 52.7277 190.867 55.5027 190.432 56.4777C189.997 57.4527 188.745 58.2177 185.595 58.3827C182.445 58.5477 180.907 57.4752 179.985 56.7102C179.062 55.9527 179.182 48.9177 179.13 47.8302C179.077 46.7427 179.025 44.6802 178.425 43.7502C177.825 42.8277 173.91 36.2502 173.257 34.6152C172.605 32.9877 172.552 31.3002 173.797 29.8302C175.05 28.3602 176.625 27.7077 176.79 26.8977C176.955 26.0802 176.79 25.2702 177.982 24.8877C179.175 24.5052 180.645 24.7227 180.645 24.7227C180.645 24.7227 182.925 21.9477 184.125 22.2777C185.317 22.6002 185.317 22.6002 185.317 22.6002C185.317 22.6002 188.632 21.6777 190.372 23.1402C192.112 24.6252 192.495 26.9577 190.32 28.4802Z" fill="white" stroke="#263238" stroke-miterlimit="10"/>
<path d="M190.943 36.1676C190.943 36.8651 191.16 37.4276 191.423 37.4276C191.685 37.4276 191.903 36.8651 191.903 36.1676C191.903 35.4701 191.685 34.9076 191.423 34.9076C191.16 34.9076 190.943 35.4701 190.943 36.1676Z" fill="#263238" stroke="#263238" stroke-miterlimit="10"/>
<path d="M176.782 26.9052C176.947 26.0877 176.782 25.2777 177.975 24.8952C179.167 24.5127 180.637 24.7302 180.637 24.7302C180.637 24.7302 182.917 21.9552 184.117 22.2852C185.31 22.6077 185.31 22.6077 185.31 22.6077C185.31 22.6077 188.625 21.6852 190.365 23.1477C192.105 24.6177 192.487 26.9502 190.312 28.4727C190.312 28.4727 184.335 29.1252 185.04 30.2127C185.745 31.3002 186.127 32.1702 185.527 32.4927C184.927 32.8152 182.212 34.1802 182.482 34.8327C182.752 35.4852 183.022 37.2252 182.647 37.3302C182.265 37.4427 182.325 37.2252 181.177 36.3552C180.037 35.4852 178.68 36.1377 178.515 37.8777C178.35 39.6177 179.767 40.7052 180.36 40.8102C180.96 40.9227 180.63 43.0377 179.49 43.8552C179.265 44.0202 178.972 44.1627 178.65 44.2827C178.582 44.0802 178.5 43.9002 178.402 43.7502C177.802 42.8277 173.887 36.2502 173.235 34.6152C172.582 32.9877 172.53 31.3002 173.775 29.8302C175.042 28.3752 176.617 27.7227 176.782 26.9052Z" fill="#263238" stroke="#263238" stroke-miterlimit="10"/>
<path d="M193.523 42.2877C193.523 42.2877 191.078 42.7227 189.66 40.9827" stroke="#263238" stroke-miterlimit="10"/>
<path d="M190.425 48.3253L185.422 46.7503L190.32 51.6928L190.425 48.3253Z" fill="#263238" stroke="#263238" stroke-miterlimit="10"/>
<path d="M192.113 33.4002C192.113 33.4002 190.35 32.4252 189.315 33.8877" stroke="#263238" stroke-miterlimit="10"/>
<path d="M203.707 74.9052C203.707 74.9052 210.495 86.2752 210.675 88.4802C210.855 90.6777 207.097 98.2003 205.995 98.4778C204.892 98.7553 201.78 95.1777 201.412 93.7077C201.045 92.2377 200.497 75.6402 201.135 74.1702C201.78 72.7002 203.707 74.9052 203.707 74.9052Z" fill="#263238" stroke="#263238" stroke-miterlimit="10"/>
<path d="M192.45 54.5053L198.953 55.0078C198.953 55.0078 202.538 54.1753 203.625 54.5053C204.713 54.8353 220.058 60.7603 221.723 61.9303C223.388 63.1003 223.14 67.3527 222.72 69.1003C222.3 70.8552 220.8 71.2677 220.05 71.3503C219.3 71.4328 203.783 70.4352 203.783 70.4352L207.788 111.055L199.448 113.808L193.523 114.558L190.605 63.9252L192.45 54.5053Z" fill="#FF6D63" stroke="#263238" stroke-miterlimit="10"/>
<path d="M190.32 51.6927L192.45 54.4977C192.45 54.4977 192.697 58.7502 192.12 60.5052C191.535 62.2602 190.62 63.9252 190.62 63.9252L187.95 57.7527C187.942 57.7527 189.937 54.5652 190.32 51.6927Z" fill="#FF6D63" stroke="#263238" stroke-miterlimit="10"/>
<path d="M180.023 65.5153L180.78 114.708C180.78 114.708 173.445 113.883 171.06 112.87C168.675 111.858 167.025 110.943 167.025 110.943C167.025 110.943 169.41 92.9653 169.5 91.5028C169.59 90.0328 169.59 88.8403 169.59 88.8403C169.59 88.8403 164.183 90.7678 162.165 90.1228C160.148 89.4778 159.87 87.3703 160.058 84.7153C160.238 82.0528 160.11 80.7478 160.11 80.2903C160.11 79.8328 160.658 72.2277 162.863 66.5427C165.06 60.8577 163.733 60.6852 165.293 59.6727C166.853 58.6602 178.223 54.6252 178.223 54.6252L179.505 57.2877L180.023 65.5153Z" fill="#FF6D63" stroke="#263238" stroke-miterlimit="10"/>
<path d="M171.338 57.3852C171.338 57.3852 172.988 76.8252 171.06 83.2452L168.03 83.3352C168.225 85.5552 169.59 81.5952 169.958 69.3927C170.115 64.1652 167.76 58.5702 167.76 58.5702C167.76 58.5702 169.958 57.6627 171.338 57.3852Z" fill="#263238" stroke="#263238" stroke-miterlimit="10"/>
<path d="M179.355 52.0003C179.355 52.0003 180.442 54.7528 181.11 56.1703C181.777 57.5878 182.28 58.5028 182.28 58.5028L180.03 65.5078C180.03 65.5078 178.275 60.6703 177.945 57.4978C177.615 54.3253 177.307 54.8128 177.307 54.8128C177.307 54.8128 178.77 51.4153 179.355 52.0003Z" fill="#FF6D63" stroke="#263238" stroke-miterlimit="10"/>
<path d="M201.96 42.8277C201.96 42.8277 200.542 42.3252 200.04 41.9127C199.537 41.5002 198.54 39.9102 198.202 39.5802C197.872 39.2502 196.207 39.8277 195.915 39.0402C195.615 38.2452 195.457 37.4427 196.455 37.6827C197.452 37.9152 199.417 37.9977 199.417 37.9977L197.85 32.8752L205.042 32.9202C205.042 32.9202 207.127 40.0077 207.127 40.5927C207.127 41.1777 206.797 42.5127 206.797 42.5127C206.797 42.5127 216.637 53.5227 218.722 56.2752C220.807 59.0277 223.395 62.7777 223.642 64.2027C223.89 65.6202 223.14 70.1277 221.392 70.7052C219.637 71.2902 218.055 70.6227 216.217 68.8677C214.38 67.1127 208.875 55.8552 208.627 55.4352C208.38 55.0152 204.12 44.5077 203.872 44.1777C203.625 43.8252 201.96 42.8277 201.96 42.8277Z" fill="white" stroke="#263238" stroke-miterlimit="10"/>
<path d="M198.3 55.0903C198.3 55.0903 200.407 68.8453 202.702 75.6328C204.997 82.4203 206.917 86.7328 206.917 86.7328L205.905 92.6953C205.905 92.6953 202.147 86.1853 199.027 77.3803C195.907 68.5753 194.167 54.8203 194.167 54.8203L198.3 55.0903Z" fill="#263238" stroke="#263238" stroke-miterlimit="10"/>
<path d="M179.94 68.2752L182.415 90.2427L168.3 88.5702L164.618 66.6777L179.94 68.2752Z" fill="white" stroke="#263238" stroke-miterlimit="10"/>
<path d="M178.125 68.3952L182.618 90.0327L168.398 89.6652L162.713 68.2077L178.125 68.3952Z" fill="white" stroke="#263238" stroke-miterlimit="10"/>
<path d="M164.363 80.8677C164.363 80.8677 167.393 82.5177 169.133 83.1627C170.873 83.8077 172.343 83.6202 173.715 82.9827C175.088 82.3377 175.823 81.4227 175.823 81.4227C175.823 81.4227 176.28 78.9477 176.835 78.5802C177.383 78.2127 178.673 77.9352 179.22 77.1102C179.768 76.2852 180.045 76.3752 180.233 77.2002C180.413 78.0252 180.6 78.9402 180.053 79.3077C179.505 79.6752 179.408 80.2227 179.408 80.2227C179.408 80.2227 179.498 80.8677 180.233 80.5902C180.968 80.3127 181.425 79.3977 182.16 79.6752C182.895 79.9527 183.173 80.5002 182.895 81.1452C182.618 81.7902 182.16 82.4277 182.16 82.4277C182.16 82.4277 183.075 84.5352 182.618 85.9152C182.16 87.2877 179.865 88.1127 178.763 88.2102C177.66 88.3002 174.548 88.3902 174.548 88.3902C174.548 88.3902 170.055 89.8602 167.303 90.6852C164.55 91.5102 163.725 91.3302 162.165 90.1377C160.605 88.9452 159.87 86.9277 160.515 84.7302C161.153 82.5177 161.888 81.3252 164.363 80.8677Z" fill="white" stroke="#263238" stroke-miterlimit="10"/>
<path d="M201.667 177.37C201.667 177.37 203.182 180.978 203.527 181.675C203.88 182.373 204.922 183.655 206.67 184.698C208.417 185.748 210.51 186.445 210.045 187.375C209.58 188.305 207.487 188.538 205.74 188.77C203.992 189.003 199.927 188.305 198.292 188.305C196.665 188.305 193.057 187.72 192.712 186.91C192.36 186.093 192.825 180.28 192.825 180.28C192.825 180.28 195.502 177.25 201.667 177.37Z" fill="white" stroke="#263238" stroke-miterlimit="10"/>
<path d="M192.713 186.903C192.6 186.648 192.578 185.905 192.585 184.998L196.778 186.243C196.778 186.243 201.165 187.36 204.6 187.518C207.128 187.638 209.085 187.015 209.948 186.685C210.12 186.903 210.173 187.128 210.053 187.368C209.588 188.298 207.495 188.53 205.748 188.763C204 188.995 199.935 188.298 198.3 188.298C196.665 188.298 193.065 187.72 192.713 186.903Z" fill="white" stroke="#263238" stroke-miterlimit="10"/>
<path d="M185.048 180.558C185.048 180.558 184.71 186.58 184.62 186.993C184.538 187.398 184.11 187.728 182.925 187.885C181.74 188.05 181.23 187.968 180.548 188.29C179.865 188.613 178.425 189.348 174.353 189.348C170.28 189.348 169.005 188.613 169.515 187.15C170.025 185.688 173.925 182.838 174.863 181.698C175.793 180.558 176.843 178.113 176.843 178.113C176.843 178.113 178.005 177.138 180.293 177.625C182.588 178.113 183.18 179.013 183.435 179.418C183.69 179.83 185.048 180.558 185.048 180.558Z" fill="white" stroke="#263238" stroke-miterlimit="10"/>
<path d="M169.515 187.158C169.545 187.068 169.59 186.978 169.643 186.88C169.943 187.203 170.385 187.578 171.045 187.893C172.575 188.628 178.598 188.215 179.955 187.488C181.11 186.865 183.915 186.01 184.733 185.763C184.688 186.415 184.65 186.895 184.628 187C184.545 187.405 184.118 187.735 182.933 187.893C181.748 188.058 181.238 187.975 180.555 188.298C179.873 188.62 178.433 189.355 174.36 189.355C170.273 189.355 169.005 188.62 169.515 187.158Z" fill="white" stroke="#263238" stroke-miterlimit="10"/>
<path d="M195.975 34.0076L201.525 33.6401V37.9826L195.975 37.6151C195.712 37.6151 195.495 36.8051 195.495 35.8076C195.495 34.8176 195.712 34.0076 195.975 34.0076Z" fill="white" stroke="#263238" stroke-miterlimit="10"/>
<path d="M194.453 33.5727H196.2C196.403 33.5727 196.538 33.7677 196.463 33.9552C196.305 34.3602 196.2 35.0352 196.2 35.8077C196.2 36.5802 196.305 37.2627 196.463 37.6602C196.538 37.8477 196.403 38.0427 196.2 38.0427H194.453C194.122 38.0427 193.86 37.0377 193.86 35.8077C193.853 34.5777 194.122 33.5727 194.453 33.5727Z" fill="white" stroke="#263238" stroke-miterlimit="10"/>
<path d="M199.958 32.8602L212.01 32.2602V39.3702L199.958 38.7702C199.523 38.7702 199.17 37.4502 199.17 35.8152C199.178 34.1802 199.53 32.8602 199.958 32.8602Z" fill="white" stroke="#263238" stroke-miterlimit="10"/>
<path d="M211.065 35.8152C211.065 37.7802 211.485 39.3702 212.01 39.3702C212.528 39.3702 212.955 37.7802 212.955 35.8152C212.955 33.8502 212.535 32.2602 212.01 32.2602C211.493 32.2602 211.065 33.8502 211.065 35.8152Z" fill="white" stroke="#263238" stroke-miterlimit="10"/>
<path d="M193.867 34.0076L199.417 33.6401V37.9826L193.867 37.6151C193.605 37.6151 193.387 36.8051 193.387 35.8076C193.387 34.8176 193.605 34.0076 193.867 34.0076Z" fill="#263238" stroke="#263238" stroke-miterlimit="10"/>
<path d="M192.345 33.5727H194.092C194.287 33.5727 194.43 33.7677 194.355 33.9552C194.197 34.3602 194.092 35.0352 194.092 35.8077C194.092 36.5802 194.197 37.2627 194.355 37.6602C194.43 37.8477 194.295 38.0427 194.092 38.0427H192.345C192.015 38.0427 191.752 37.0377 191.752 35.8077C191.745 34.5777 192.015 33.5727 192.345 33.5727Z" fill="white" stroke="#263238" stroke-miterlimit="10"/>
<path d="M197.85 32.8602L209.903 32.2602V39.3702L197.85 38.7702C197.415 38.7702 197.062 37.4502 197.062 35.8152C197.07 34.1802 197.422 32.8602 197.85 32.8602Z" fill="#263238" stroke="#263238" stroke-miterlimit="10"/>
<path d="M208.958 35.8152C208.958 37.7802 209.378 39.3702 209.903 39.3702C210.42 39.3702 210.848 37.7802 210.848 35.8152C210.848 33.8502 210.428 32.2602 209.903 32.2602C209.385 32.2602 208.958 33.8502 208.958 35.8152Z" fill="white" stroke="#263238" stroke-miterlimit="10"/>
<path d="M204.84 32.4326C204.84 32.4326 203.288 30.7676 202.71 30.7676C202.133 30.7676 201.218 32.2601 201.045 32.4326C200.873 32.6051 200.985 32.8901 201.623 32.9501C202.253 33.0101 202.943 32.4926 202.943 32.4926L204.84 32.4326Z" fill="white" stroke="#263238" stroke-miterlimit="10"/>
<path d="M202.71 30.7601C202.71 30.7601 200.753 30.3026 200.295 30.4151C199.838 30.5276 198.975 32.4851 199.148 32.7776C199.32 33.0626 201.045 32.4326 201.045 32.4326C201.045 32.4326 202.193 30.7001 202.71 30.7601Z" fill="white" stroke="#263238" stroke-miterlimit="10"/>
<path d="M199.89 30.5877C199.89 30.5877 198.968 30.0102 198.51 30.4152C198.053 30.8202 197.07 32.2002 197.303 32.7177C197.535 33.2352 199.14 32.7777 199.14 32.7777C199.14 32.7777 199.485 30.7602 199.89 30.5877Z" fill="white" stroke="#263238" stroke-miterlimit="10"/>
<path d="M198.053 30.7601C198.053 30.7601 196.905 30.3026 196.5 30.7601C196.095 31.2176 195.06 32.6576 195.75 33.0026C196.44 33.3476 197.13 32.3126 197.13 32.3126L198.053 30.7601Z" fill="white" stroke="#263238" stroke-miterlimit="10"/>
</g>
<defs>
<clipPath id="clip0_2_2033">
<rect width="375" height="375" fill="white" transform="translate(0 0.527679)"/>
</clipPath>
</defs>
</svg>
